<mxfile host="app.diagrams.net" modified="2021-04-21T15:30:49.586Z" agent="5.0 (Windows NT 10.0; Win64; x64) AppleWebKit/537.36 (KHTML, like Gecko) Chrome/90.0.4430.85 Safari/537.36" etag="rUF1FQs5nDznEM9cSjNG" version="14.6.0" type="github" pages="3">
  <diagram id="XqCu-K7oM4Woj5MDQABH" name="Context">
    <mxGraphModel dx="1408" dy="748" grid="1" gridSize="10" guides="1" tooltips="1" connect="1" arrows="1" fold="1" page="1" pageScale="1" pageWidth="1100" pageHeight="1100" math="0" shadow="0">
      <root>
        <mxCell id="0" />
        <mxCell id="1" parent="0" />
      </root>
    </mxGraphModel>
  </diagram>
  <diagram id="QgAFhkmQAJafTd6JTOyV" name="Level 0">
    <mxGraphModel dx="3062" dy="1917" grid="1" gridSize="10" guides="1" tooltips="1" connect="1" arrows="1" fold="1" page="1" pageScale="1" pageWidth="1654" pageHeight="1169" math="0" shadow="0">
      <root>
        <mxCell id="q77c8PbtB79I5cHbqP9B-0" />
        <mxCell id="q77c8PbtB79I5cHbqP9B-1" parent="q77c8PbtB79I5cHbqP9B-0" />
        <mxCell id="p_bIUJvIZ3zZcEdRJWA5-6" value="1.0" style="swimlane;childLayout=stackLayout;horizontal=1;startSize=30;horizontalStack=0;rounded=1;fontSize=14;fontStyle=0;strokeWidth=2;resizeParent=0;resizeLast=1;shadow=0;dashed=0;align=center;" vertex="1" parent="q77c8PbtB79I5cHbqP9B-1">
          <mxGeometry x="-907" y="-990" width="160" height="160" as="geometry" />
        </mxCell>
        <mxCell id="p_bIUJvIZ3zZcEdRJWA5-7" value="Manage Account" style="align=center;strokeColor=none;fillColor=none;spacingLeft=4;fontSize=14;verticalAlign=middle;resizable=0;rotatable=0;part=1;" vertex="1" parent="p_bIUJvIZ3zZcEdRJWA5-6">
          <mxGeometry y="30" width="160" height="130" as="geometry" />
        </mxCell>
        <mxCell id="p_bIUJvIZ3zZcEdRJWA5-8" value="2.0" style="swimlane;childLayout=stackLayout;horizontal=1;startSize=30;horizontalStack=0;rounded=1;fontSize=14;fontStyle=0;strokeWidth=2;resizeParent=0;resizeLast=1;shadow=0;dashed=0;align=center;" vertex="1" parent="q77c8PbtB79I5cHbqP9B-1">
          <mxGeometry x="-907" y="-630" width="160" height="120" as="geometry" />
        </mxCell>
        <mxCell id="p_bIUJvIZ3zZcEdRJWA5-9" value="Search Host" style="align=center;strokeColor=none;fillColor=none;spacingLeft=4;fontSize=14;verticalAlign=middle;resizable=0;rotatable=0;part=1;" vertex="1" parent="p_bIUJvIZ3zZcEdRJWA5-8">
          <mxGeometry y="30" width="160" height="90" as="geometry" />
        </mxCell>
        <mxCell id="p_bIUJvIZ3zZcEdRJWA5-11" value="3.0" style="swimlane;childLayout=stackLayout;horizontal=1;startSize=30;horizontalStack=0;rounded=1;fontSize=14;fontStyle=0;strokeWidth=2;resizeParent=0;resizeLast=1;shadow=0;dashed=0;align=center;" vertex="1" parent="q77c8PbtB79I5cHbqP9B-1">
          <mxGeometry x="-907" y="-450" width="160" height="120" as="geometry" />
        </mxCell>
        <mxCell id="p_bIUJvIZ3zZcEdRJWA5-12" value="Service" style="align=center;strokeColor=none;fillColor=none;spacingLeft=4;fontSize=14;verticalAlign=middle;resizable=0;rotatable=0;part=1;" vertex="1" parent="p_bIUJvIZ3zZcEdRJWA5-11">
          <mxGeometry y="30" width="160" height="90" as="geometry" />
        </mxCell>
        <mxCell id="p_bIUJvIZ3zZcEdRJWA5-13" value="4.0" style="swimlane;childLayout=stackLayout;horizontal=1;startSize=30;horizontalStack=0;rounded=1;fontSize=14;fontStyle=0;strokeWidth=2;resizeParent=0;resizeLast=1;shadow=0;dashed=0;align=center;" vertex="1" parent="q77c8PbtB79I5cHbqP9B-1">
          <mxGeometry x="-907" y="-240" width="160" height="120" as="geometry" />
        </mxCell>
        <mxCell id="p_bIUJvIZ3zZcEdRJWA5-14" value="Pay" style="align=center;strokeColor=none;fillColor=none;spacingLeft=4;fontSize=14;verticalAlign=middle;resizable=0;rotatable=0;part=1;" vertex="1" parent="p_bIUJvIZ3zZcEdRJWA5-13">
          <mxGeometry y="30" width="160" height="90" as="geometry" />
        </mxCell>
        <mxCell id="p_bIUJvIZ3zZcEdRJWA5-15" value="Customer" style="whiteSpace=wrap;html=1;align=center;fontSize=14;" vertex="1" parent="q77c8PbtB79I5cHbqP9B-1">
          <mxGeometry x="-1340" y="-1030" width="140" height="160" as="geometry" />
        </mxCell>
        <mxCell id="p_bIUJvIZ3zZcEdRJWA5-16" value="Host" style="whiteSpace=wrap;html=1;align=center;fontSize=14;" vertex="1" parent="q77c8PbtB79I5cHbqP9B-1">
          <mxGeometry x="-452" y="-1020" width="150" height="160" as="geometry" />
        </mxCell>
        <mxCell id="p_bIUJvIZ3zZcEdRJWA5-22" value="" style="endArrow=classic;html=1;fontSize=14;align=center;entryX=0;entryY=0.134;entryDx=0;entryDy=0;entryPerimeter=0;exitX=1.014;exitY=0.35;exitDx=0;exitDy=0;exitPerimeter=0;" edge="1" parent="q77c8PbtB79I5cHbqP9B-1">
          <mxGeometry width="50" height="50" relative="1" as="geometry">
            <mxPoint x="-1198.04" y="-960" as="sourcePoint" />
            <mxPoint x="-907" y="-959.92" as="targetPoint" />
          </mxGeometry>
        </mxCell>
        <mxCell id="p_bIUJvIZ3zZcEdRJWA5-28" value="Username" style="edgeLabel;html=1;align=center;verticalAlign=middle;resizable=0;points=[];fontSize=14;" vertex="1" connectable="0" parent="p_bIUJvIZ3zZcEdRJWA5-22">
          <mxGeometry x="-0.1215" y="1" relative="1" as="geometry">
            <mxPoint x="10" as="offset" />
          </mxGeometry>
        </mxCell>
        <mxCell id="p_bIUJvIZ3zZcEdRJWA5-23" value="" style="endArrow=classic;html=1;fontSize=14;align=center;entryX=0;entryY=0.134;entryDx=0;entryDy=0;entryPerimeter=0;exitX=1.014;exitY=0.35;exitDx=0;exitDy=0;exitPerimeter=0;" edge="1" parent="q77c8PbtB79I5cHbqP9B-1">
          <mxGeometry width="50" height="50" relative="1" as="geometry">
            <mxPoint x="-1198.04" y="-946" as="sourcePoint" />
            <mxPoint x="-907" y="-945.92" as="targetPoint" />
          </mxGeometry>
        </mxCell>
        <mxCell id="p_bIUJvIZ3zZcEdRJWA5-29" value="Password" style="edgeLabel;html=1;align=center;verticalAlign=middle;resizable=0;points=[];fontSize=14;" vertex="1" connectable="0" parent="p_bIUJvIZ3zZcEdRJWA5-23">
          <mxGeometry x="-0.0308" y="1" relative="1" as="geometry">
            <mxPoint as="offset" />
          </mxGeometry>
        </mxCell>
        <mxCell id="p_bIUJvIZ3zZcEdRJWA5-24" value="" style="endArrow=classic;html=1;fontSize=14;align=center;entryX=0;entryY=0.134;entryDx=0;entryDy=0;entryPerimeter=0;exitX=1.014;exitY=0.35;exitDx=0;exitDy=0;exitPerimeter=0;" edge="1" parent="q77c8PbtB79I5cHbqP9B-1">
          <mxGeometry width="50" height="50" relative="1" as="geometry">
            <mxPoint x="-907" y="-930.12" as="sourcePoint" />
            <mxPoint x="-1198.04" y="-930.2" as="targetPoint" />
          </mxGeometry>
        </mxCell>
        <mxCell id="p_bIUJvIZ3zZcEdRJWA5-30" value="Access Token" style="edgeLabel;html=1;align=center;verticalAlign=middle;resizable=0;points=[];fontSize=14;labelBackgroundColor=#ffffff;" vertex="1" connectable="0" parent="p_bIUJvIZ3zZcEdRJWA5-24">
          <mxGeometry x="0.0858" relative="1" as="geometry">
            <mxPoint x="5" as="offset" />
          </mxGeometry>
        </mxCell>
        <mxCell id="p_bIUJvIZ3zZcEdRJWA5-25" value="" style="endArrow=classic;html=1;fontSize=14;align=center;entryX=0;entryY=0.134;entryDx=0;entryDy=0;entryPerimeter=0;exitX=1.014;exitY=0.35;exitDx=0;exitDy=0;exitPerimeter=0;" edge="1" parent="q77c8PbtB79I5cHbqP9B-1">
          <mxGeometry width="50" height="50" relative="1" as="geometry">
            <mxPoint x="-908.96" y="-909.92" as="sourcePoint" />
            <mxPoint x="-1200" y="-910" as="targetPoint" />
          </mxGeometry>
        </mxCell>
        <mxCell id="p_bIUJvIZ3zZcEdRJWA5-31" value="Informations" style="edgeLabel;html=1;align=center;verticalAlign=middle;resizable=0;points=[];fontSize=14;" vertex="1" connectable="0" parent="p_bIUJvIZ3zZcEdRJWA5-25">
          <mxGeometry x="-0.0514" y="1" relative="1" as="geometry">
            <mxPoint x="-13" as="offset" />
          </mxGeometry>
        </mxCell>
        <mxCell id="p_bIUJvIZ3zZcEdRJWA5-32" value="" style="endArrow=classic;html=1;fontSize=14;align=center;entryX=0;entryY=0.134;entryDx=0;entryDy=0;entryPerimeter=0;exitX=1.014;exitY=0.35;exitDx=0;exitDy=0;exitPerimeter=0;" edge="1" parent="q77c8PbtB79I5cHbqP9B-1">
          <mxGeometry width="50" height="50" relative="1" as="geometry">
            <mxPoint x="-454" y="-964.75" as="sourcePoint" />
            <mxPoint x="-745.04" y="-964.83" as="targetPoint" />
          </mxGeometry>
        </mxCell>
        <mxCell id="p_bIUJvIZ3zZcEdRJWA5-33" value="Informations" style="edgeLabel;html=1;align=center;verticalAlign=middle;resizable=0;points=[];fontSize=14;" vertex="1" connectable="0" parent="p_bIUJvIZ3zZcEdRJWA5-32">
          <mxGeometry x="-0.039" y="-1" relative="1" as="geometry">
            <mxPoint x="4" y="-2" as="offset" />
          </mxGeometry>
        </mxCell>
        <mxCell id="p_bIUJvIZ3zZcEdRJWA5-34" value="" style="endArrow=classic;html=1;fontSize=14;align=center;entryX=0;entryY=0.134;entryDx=0;entryDy=0;entryPerimeter=0;exitX=1.014;exitY=0.35;exitDx=0;exitDy=0;exitPerimeter=0;" edge="1" parent="q77c8PbtB79I5cHbqP9B-1">
          <mxGeometry width="50" height="50" relative="1" as="geometry">
            <mxPoint x="-454" y="-950.75" as="sourcePoint" />
            <mxPoint x="-745.04" y="-950.83" as="targetPoint" />
          </mxGeometry>
        </mxCell>
        <mxCell id="p_bIUJvIZ3zZcEdRJWA5-35" value="Username" style="edgeLabel;html=1;align=center;verticalAlign=middle;resizable=0;points=[];fontSize=14;" vertex="1" connectable="0" parent="p_bIUJvIZ3zZcEdRJWA5-34">
          <mxGeometry x="-0.1215" y="1" relative="1" as="geometry">
            <mxPoint x="-8" as="offset" />
          </mxGeometry>
        </mxCell>
        <mxCell id="p_bIUJvIZ3zZcEdRJWA5-36" value="" style="endArrow=classic;html=1;fontSize=14;align=center;entryX=0;entryY=0.134;entryDx=0;entryDy=0;entryPerimeter=0;exitX=1.014;exitY=0.35;exitDx=0;exitDy=0;exitPerimeter=0;" edge="1" parent="q77c8PbtB79I5cHbqP9B-1">
          <mxGeometry width="50" height="50" relative="1" as="geometry">
            <mxPoint x="-454" y="-936.75" as="sourcePoint" />
            <mxPoint x="-745.04" y="-936.83" as="targetPoint" />
          </mxGeometry>
        </mxCell>
        <mxCell id="p_bIUJvIZ3zZcEdRJWA5-37" value="Password" style="edgeLabel;html=1;align=center;verticalAlign=middle;resizable=0;points=[];fontSize=14;" vertex="1" connectable="0" parent="p_bIUJvIZ3zZcEdRJWA5-36">
          <mxGeometry x="-0.0308" y="1" relative="1" as="geometry">
            <mxPoint x="5" as="offset" />
          </mxGeometry>
        </mxCell>
        <mxCell id="p_bIUJvIZ3zZcEdRJWA5-38" value="" style="endArrow=classic;html=1;fontSize=14;align=center;entryX=0;entryY=0.134;entryDx=0;entryDy=0;entryPerimeter=0;exitX=1.014;exitY=0.35;exitDx=0;exitDy=0;exitPerimeter=0;" edge="1" parent="q77c8PbtB79I5cHbqP9B-1">
          <mxGeometry width="50" height="50" relative="1" as="geometry">
            <mxPoint x="-745.04" y="-921.0300000000001" as="sourcePoint" />
            <mxPoint x="-454" y="-920.9500000000002" as="targetPoint" />
          </mxGeometry>
        </mxCell>
        <mxCell id="p_bIUJvIZ3zZcEdRJWA5-39" value="Access Token" style="edgeLabel;html=1;align=center;verticalAlign=middle;resizable=0;points=[];fontSize=14;labelBackgroundColor=#ffffff;" vertex="1" connectable="0" parent="p_bIUJvIZ3zZcEdRJWA5-38">
          <mxGeometry x="0.0858" relative="1" as="geometry">
            <mxPoint x="5" as="offset" />
          </mxGeometry>
        </mxCell>
        <mxCell id="p_bIUJvIZ3zZcEdRJWA5-40" value="" style="endArrow=classic;html=1;fontSize=14;align=center;" edge="1" parent="q77c8PbtB79I5cHbqP9B-1">
          <mxGeometry width="50" height="50" relative="1" as="geometry">
            <mxPoint x="-743" y="-900" as="sourcePoint" />
            <mxPoint x="-452" y="-900" as="targetPoint" />
          </mxGeometry>
        </mxCell>
        <mxCell id="p_bIUJvIZ3zZcEdRJWA5-41" value="Informations" style="edgeLabel;html=1;align=center;verticalAlign=middle;resizable=0;points=[];fontSize=14;" vertex="1" connectable="0" parent="p_bIUJvIZ3zZcEdRJWA5-40">
          <mxGeometry x="-0.0514" y="1" relative="1" as="geometry">
            <mxPoint x="9" as="offset" />
          </mxGeometry>
        </mxCell>
        <mxCell id="p_bIUJvIZ3zZcEdRJWA5-57" style="edgeStyle=orthogonalEdgeStyle;rounded=0;orthogonalLoop=1;jettySize=auto;html=1;fontSize=14;align=center;entryX=0;entryY=0.602;entryDx=0;entryDy=0;entryPerimeter=0;" edge="1" parent="q77c8PbtB79I5cHbqP9B-1" source="p_bIUJvIZ3zZcEdRJWA5-43" target="p_bIUJvIZ3zZcEdRJWA5-7">
          <mxGeometry relative="1" as="geometry">
            <mxPoint x="-907" y="-892" as="targetPoint" />
            <Array as="points">
              <mxPoint x="-1060" y="-882" />
            </Array>
          </mxGeometry>
        </mxCell>
        <mxCell id="p_bIUJvIZ3zZcEdRJWA5-43" value="&amp;nbsp;D1&amp;nbsp; &amp;nbsp; &amp;nbsp; &amp;nbsp;Account" style="html=1;dashed=0;whitespace=wrap;shape=mxgraph.dfd.dataStoreID;align=left;spacingLeft=3;points=[[0,0],[0.5,0],[1,0],[0,0.5],[1,0.5],[0,1],[0.5,1],[1,1]];" vertex="1" parent="q77c8PbtB79I5cHbqP9B-1">
          <mxGeometry x="-1120" y="-760" width="110" height="30" as="geometry" />
        </mxCell>
        <mxCell id="p_bIUJvIZ3zZcEdRJWA5-54" style="edgeStyle=orthogonalEdgeStyle;rounded=0;orthogonalLoop=1;jettySize=auto;html=1;fontSize=14;align=center;" edge="1" parent="q77c8PbtB79I5cHbqP9B-1" source="p_bIUJvIZ3zZcEdRJWA5-44">
          <mxGeometry relative="1" as="geometry">
            <mxPoint x="-907" y="-870" as="targetPoint" />
            <Array as="points">
              <mxPoint x="-980" y="-870" />
              <mxPoint x="-907" y="-870" />
            </Array>
          </mxGeometry>
        </mxCell>
        <mxCell id="p_bIUJvIZ3zZcEdRJWA5-44" value="&amp;nbsp;D2&amp;nbsp; &amp;nbsp; &amp;nbsp; &amp;nbsp;Customer" style="html=1;dashed=0;whitespace=wrap;shape=mxgraph.dfd.dataStoreID;align=left;spacingLeft=3;points=[[0,0],[0.5,0],[1,0],[0,0.5],[1,0.5],[0,1],[0.5,1],[1,1]];" vertex="1" parent="q77c8PbtB79I5cHbqP9B-1">
          <mxGeometry x="-1040" y="-830" width="110" height="30" as="geometry" />
        </mxCell>
        <mxCell id="p_bIUJvIZ3zZcEdRJWA5-65" style="edgeStyle=orthogonalEdgeStyle;rounded=0;orthogonalLoop=1;jettySize=auto;html=1;fontSize=14;align=center;" edge="1" parent="q77c8PbtB79I5cHbqP9B-1" source="p_bIUJvIZ3zZcEdRJWA5-45">
          <mxGeometry relative="1" as="geometry">
            <mxPoint x="-748" y="-850" as="targetPoint" />
            <Array as="points">
              <mxPoint x="-640" y="-850" />
              <mxPoint x="-748" y="-850" />
            </Array>
          </mxGeometry>
        </mxCell>
        <mxCell id="p_bIUJvIZ3zZcEdRJWA5-45" value="&amp;nbsp;D3&amp;nbsp; &amp;nbsp; &amp;nbsp; &amp;nbsp;Host" style="html=1;dashed=0;whitespace=wrap;shape=mxgraph.dfd.dataStoreID;align=left;spacingLeft=3;points=[[0,0],[0.5,0],[1,0],[0,0.5],[1,0.5],[0,1],[0.5,1],[1,1]];" vertex="1" parent="q77c8PbtB79I5cHbqP9B-1">
          <mxGeometry x="-690" y="-830" width="110" height="30" as="geometry" />
        </mxCell>
        <mxCell id="p_bIUJvIZ3zZcEdRJWA5-46" value="&amp;nbsp;D4&amp;nbsp; &amp;nbsp; &amp;nbsp; &amp;nbsp;Services" style="html=1;dashed=0;whitespace=wrap;shape=mxgraph.dfd.dataStoreID;align=left;spacingLeft=3;points=[[0,0],[0.5,0],[1,0],[0,0.5],[1,0.5],[0,1],[0.5,1],[1,1]];" vertex="1" parent="q77c8PbtB79I5cHbqP9B-1">
          <mxGeometry x="-640" y="-405" width="110" height="30" as="geometry" />
        </mxCell>
        <mxCell id="p_bIUJvIZ3zZcEdRJWA5-47" value="&amp;nbsp;D5&amp;nbsp; &amp;nbsp; &amp;nbsp; &amp;nbsp;Payment" style="html=1;dashed=0;whitespace=wrap;shape=mxgraph.dfd.dataStoreID;align=left;spacingLeft=3;points=[[0,0],[0.5,0],[1,0],[0,0.5],[1,0.5],[0,1],[0.5,1],[1,1]];" vertex="1" parent="q77c8PbtB79I5cHbqP9B-1">
          <mxGeometry x="-640" y="-195" width="110" height="30" as="geometry" />
        </mxCell>
        <mxCell id="p_bIUJvIZ3zZcEdRJWA5-52" style="edgeStyle=orthogonalEdgeStyle;rounded=0;orthogonalLoop=1;jettySize=auto;html=1;entryX=0.581;entryY=-0.025;entryDx=0;entryDy=0;entryPerimeter=0;fontSize=14;align=center;" edge="1" parent="q77c8PbtB79I5cHbqP9B-1" source="p_bIUJvIZ3zZcEdRJWA5-48" target="p_bIUJvIZ3zZcEdRJWA5-6">
          <mxGeometry relative="1" as="geometry" />
        </mxCell>
        <mxCell id="p_bIUJvIZ3zZcEdRJWA5-48" value="&amp;nbsp;D6&amp;nbsp; &amp;nbsp; &amp;nbsp; &amp;nbsp;Token" style="html=1;dashed=0;whitespace=wrap;shape=mxgraph.dfd.dataStoreID;align=left;spacingLeft=3;points=[[0,0],[0.5,0],[1,0],[0,0.5],[1,0.5],[0,1],[0.5,1],[1,1]];" vertex="1" parent="q77c8PbtB79I5cHbqP9B-1">
          <mxGeometry x="-730" y="-1070" width="110" height="30" as="geometry" />
        </mxCell>
        <mxCell id="p_bIUJvIZ3zZcEdRJWA5-67" style="edgeStyle=orthogonalEdgeStyle;rounded=0;orthogonalLoop=1;jettySize=auto;html=1;fontSize=14;align=center;" edge="1" parent="q77c8PbtB79I5cHbqP9B-1" source="p_bIUJvIZ3zZcEdRJWA5-49" target="p_bIUJvIZ3zZcEdRJWA5-7">
          <mxGeometry relative="1" as="geometry">
            <Array as="points">
              <mxPoint x="-550" y="-870" />
            </Array>
          </mxGeometry>
        </mxCell>
        <mxCell id="p_bIUJvIZ3zZcEdRJWA5-49" value="&amp;nbsp;D8&amp;nbsp; &amp;nbsp; &amp;nbsp; &amp;nbsp;Host Service" style="html=1;dashed=0;whitespace=wrap;shape=mxgraph.dfd.dataStoreID;align=left;spacingLeft=3;points=[[0,0],[0.5,0],[1,0],[0,0.5],[1,0.5],[0,1],[0.5,1],[1,1]];" vertex="1" parent="q77c8PbtB79I5cHbqP9B-1">
          <mxGeometry x="-620" y="-760" width="120" height="30" as="geometry" />
        </mxCell>
        <mxCell id="p_bIUJvIZ3zZcEdRJWA5-63" style="edgeStyle=orthogonalEdgeStyle;rounded=0;orthogonalLoop=1;jettySize=auto;html=1;entryX=-0.004;entryY=0.47;entryDx=0;entryDy=0;entryPerimeter=0;fontSize=14;align=center;exitX=0.568;exitY=-0.095;exitDx=0;exitDy=0;exitPerimeter=0;" edge="1" parent="q77c8PbtB79I5cHbqP9B-1" source="p_bIUJvIZ3zZcEdRJWA5-50">
          <mxGeometry relative="1" as="geometry">
            <mxPoint x="-1159.9714285714285" y="-696" as="sourcePoint" />
            <mxPoint x="-907.6399999999999" y="-894.9" as="targetPoint" />
            <Array as="points">
              <mxPoint x="-1160" y="-703" />
              <mxPoint x="-1160" y="-895" />
            </Array>
          </mxGeometry>
        </mxCell>
        <mxCell id="p_bIUJvIZ3zZcEdRJWA5-50" value="&amp;nbsp;D7&amp;nbsp; &amp;nbsp; &amp;nbsp; &amp;nbsp;Dog" style="html=1;dashed=0;whitespace=wrap;shape=mxgraph.dfd.dataStoreID;align=left;spacingLeft=3;points=[[0,0],[0.5,0],[1,0],[0,0.5],[1,0.5],[0,1],[0.5,1],[1,1]];" vertex="1" parent="q77c8PbtB79I5cHbqP9B-1">
          <mxGeometry x="-1230" y="-700" width="120" height="30" as="geometry" />
        </mxCell>
        <mxCell id="p_bIUJvIZ3zZcEdRJWA5-53" style="edgeStyle=orthogonalEdgeStyle;rounded=0;orthogonalLoop=1;jettySize=auto;html=1;entryX=0.581;entryY=-0.025;entryDx=0;entryDy=0;entryPerimeter=0;fontSize=14;align=center;" edge="1" parent="q77c8PbtB79I5cHbqP9B-1">
          <mxGeometry relative="1" as="geometry">
            <mxPoint x="-750" y="-978" as="sourcePoint" />
            <mxPoint x="-665.96" y="-1040" as="targetPoint" />
          </mxGeometry>
        </mxCell>
        <mxCell id="p_bIUJvIZ3zZcEdRJWA5-55" style="edgeStyle=orthogonalEdgeStyle;rounded=0;orthogonalLoop=1;jettySize=auto;html=1;entryX=0;entryY=0.75;entryDx=0;entryDy=0;fontSize=14;align=center;exitX=0.175;exitY=1.006;exitDx=0;exitDy=0;exitPerimeter=0;" edge="1" parent="q77c8PbtB79I5cHbqP9B-1" source="p_bIUJvIZ3zZcEdRJWA5-7">
          <mxGeometry relative="1" as="geometry">
            <mxPoint x="-857" y="-830" as="sourcePoint" />
            <mxPoint x="-930" y="-810" as="targetPoint" />
            <Array as="points">
              <mxPoint x="-880" y="-829" />
              <mxPoint x="-880" y="-810" />
            </Array>
          </mxGeometry>
        </mxCell>
        <mxCell id="p_bIUJvIZ3zZcEdRJWA5-60" value="" style="endArrow=classic;html=1;fontSize=14;align=center;entryX=0;entryY=0.134;entryDx=0;entryDy=0;entryPerimeter=0;exitX=1.014;exitY=0.35;exitDx=0;exitDy=0;exitPerimeter=0;" edge="1" parent="q77c8PbtB79I5cHbqP9B-1">
          <mxGeometry width="50" height="50" relative="1" as="geometry">
            <mxPoint x="-1198.0399999999997" y="-980" as="sourcePoint" />
            <mxPoint x="-907" y="-979.92" as="targetPoint" />
          </mxGeometry>
        </mxCell>
        <mxCell id="p_bIUJvIZ3zZcEdRJWA5-61" value="Informations" style="edgeLabel;html=1;align=center;verticalAlign=middle;resizable=0;points=[];fontSize=14;" vertex="1" connectable="0" parent="p_bIUJvIZ3zZcEdRJWA5-60">
          <mxGeometry x="-0.1215" y="1" relative="1" as="geometry">
            <mxPoint x="10" as="offset" />
          </mxGeometry>
        </mxCell>
        <mxCell id="p_bIUJvIZ3zZcEdRJWA5-62" style="edgeStyle=orthogonalEdgeStyle;rounded=0;orthogonalLoop=1;jettySize=auto;html=1;fontSize=14;align=center;exitX=0.25;exitY=1;exitDx=0;exitDy=0;" edge="1" parent="q77c8PbtB79I5cHbqP9B-1" source="p_bIUJvIZ3zZcEdRJWA5-7" target="p_bIUJvIZ3zZcEdRJWA5-43">
          <mxGeometry relative="1" as="geometry">
            <mxPoint x="-837" y="-830" as="sourcePoint" />
            <mxPoint x="-990" y="-750" as="targetPoint" />
            <Array as="points">
              <mxPoint x="-867" y="-745" />
            </Array>
          </mxGeometry>
        </mxCell>
        <mxCell id="p_bIUJvIZ3zZcEdRJWA5-64" style="edgeStyle=orthogonalEdgeStyle;rounded=0;orthogonalLoop=1;jettySize=auto;html=1;entryX=-0.004;entryY=0.47;entryDx=0;entryDy=0;entryPerimeter=0;fontSize=14;align=center;" edge="1" parent="q77c8PbtB79I5cHbqP9B-1">
          <mxGeometry relative="1" as="geometry">
            <mxPoint x="-856" y="-830" as="sourcePoint" />
            <mxPoint x="-1110" y="-687.95" as="targetPoint" />
            <Array as="points">
              <mxPoint x="-856" y="-688" />
            </Array>
          </mxGeometry>
        </mxCell>
        <mxCell id="p_bIUJvIZ3zZcEdRJWA5-66" style="edgeStyle=orthogonalEdgeStyle;rounded=0;orthogonalLoop=1;jettySize=auto;html=1;entryX=0.996;entryY=0.624;entryDx=0;entryDy=0;entryPerimeter=0;fontSize=14;align=center;" edge="1" parent="q77c8PbtB79I5cHbqP9B-1">
          <mxGeometry relative="1" as="geometry">
            <mxPoint x="-798" y="-830" as="sourcePoint" />
            <mxPoint x="-690.0014285714285" y="-811.12" as="targetPoint" />
            <Array as="points">
              <mxPoint x="-798.03" y="-811.12" />
            </Array>
          </mxGeometry>
        </mxCell>
        <mxCell id="p_bIUJvIZ3zZcEdRJWA5-68" style="edgeStyle=orthogonalEdgeStyle;rounded=0;orthogonalLoop=1;jettySize=auto;html=1;fontSize=14;align=center;" edge="1" parent="q77c8PbtB79I5cHbqP9B-1">
          <mxGeometry relative="1" as="geometry">
            <mxPoint x="-817" y="-830" as="sourcePoint" />
            <mxPoint x="-620.0014285714285" y="-740" as="targetPoint" />
            <Array as="points">
              <mxPoint x="-817" y="-740" />
            </Array>
          </mxGeometry>
        </mxCell>
      </root>
    </mxGraphModel>
  </diagram>
  <diagram id="tmLOusEAaKSL5f-zfJs_" name="LV1 Process 1.0">
    <mxGraphModel dx="1408" dy="748" grid="1" gridSize="10" guides="1" tooltips="1" connect="1" arrows="1" fold="1" page="1" pageScale="1" pageWidth="1100" pageHeight="1100" math="0" shadow="0">
      <root>
        <mxCell id="Ud7d8Ejm6GXD4CPUAnJc-0" />
        <mxCell id="Ud7d8Ejm6GXD4CPUAnJc-1" parent="Ud7d8Ejm6GXD4CPUAnJc-0" />
      </root>
    </mxGraphModel>
  </diagram>
</mxfile>
